<?xml version="1.0" encoding="UTF-8" standalone="no"?>
<svg
   xmlns:dc="http://purl.org/dc/elements/1.1/"
   xmlns:cc="http://creativecommons.org/ns#"
   xmlns:rdf="http://www.w3.org/1999/02/22-rdf-syntax-ns#"
   xmlns:svg="http://www.w3.org/2000/svg"
   xmlns="http://www.w3.org/2000/svg"
   width="99mm"
   height="17mm"
   viewBox="0 0 99 17"
   version="1.1"
   id="svg8">
  <defs
     id="defs2" />
  <metadata
     id="metadata5">
    <rdf:RDF>
      <cc:Work
         rdf:about="">
        <dc:format>image/svg+xml</dc:format>
        <dc:type
           rdf:resource="http://purl.org/dc/dcmitype/StillImage" />
        <dc:title></dc:title>
      </cc:Work>
    </rdf:RDF>
  </metadata>
  <g
     id="layer1">
    <g
       id="g877"
       transform="matrix(0.35277777,0,0,0.35277777,-6.5507866,-5.9193266)">
      <path
         d="m 48.625,28.207 v 3.652 c 0,0.239 -0.156,0.399 -0.398,0.399 H 32.535 v 7.469 h 12.953 c 0.239,0 0.399,0.16 0.399,0.398 v 3.656 c 0,0.239 -0.16,0.395 -0.399,0.395 H 32.535 v 11.047 c 0,0.238 -0.156,0.394 -0.394,0.394 h -3.934 c -0.238,0 -0.398,-0.156 -0.398,-0.394 V 28.207 c 0,-0.238 0.16,-0.398 0.398,-0.398 h 20.02 c 0.242,0 0.398,0.16 0.398,0.398"
         style="fill:#7a8993;fill-opacity:1;fill-rule:nonzero;stroke:none"
         id="path879" />
      <path
         d="M 72.324,43.859 C 70.871,39.848 69.266,35.832 67.613,32.18 H 66.68 c -1.649,3.652 -3.278,7.668 -4.727,11.679 z m 8.321,11.758 h -4.329 c -0.238,0 -0.398,-0.117 -0.457,-0.355 -0.578,-2.285 -1.273,-4.688 -2.066,-7.114 H 60.504 c -0.793,2.426 -1.488,4.829 -2.047,7.114 C 58.398,55.5 58.238,55.617 58,55.617 h -4.172 c -0.277,0 -0.437,-0.156 -0.355,-0.437 2.504,-8.86 6.316,-18.633 10.168,-26.856 0.179,-0.375 0.398,-0.515 0.777,-0.515 h 5.641 c 0.375,0 0.593,0.14 0.773,0.515 3.895,8.203 7.648,17.996 10.172,26.856 0.078,0.281 -0.082,0.437 -0.359,0.437"
         style="fill:#7a8993;fill-opacity:1;fill-rule:nonzero;stroke:none"
         id="path881" />
      <path
         d="m 87.754,41.953 c 0,-8.621 5.684,-14.66 13.785,-14.66 h 0.598 c 5.086,0 9.019,2.582 11.105,6.316 0.137,0.239 0.098,0.438 -0.14,0.555 l -3.497,1.731 c -0.238,0.117 -0.535,0.117 -0.695,-0.18 -1.469,-2.543 -3.676,-3.895 -6.933,-3.895 h -0.594 c -5.106,0 -8.621,4.055 -8.621,9.934 0,5.898 3.457,9.851 8.621,9.851 h 0.594 c 3.339,0 5.285,-1.132 6.773,-2.859 0.199,-0.219 0.418,-0.258 0.656,-0.141 l 3.598,1.75 c 0.137,0.079 0.195,0.176 0.195,0.278 0,0.097 -0.039,0.179 -0.117,0.297 -2.207,3.218 -6.18,5.203 -11.023,5.203 h -0.598 c -8.242,0 -13.707,-5.66 -13.707,-14.18"
         style="fill:#7a8993;fill-opacity:1;fill-rule:nonzero;stroke:none"
         id="path883" />
      <path
         d="m 144.883,51.566 v 3.657 c 0,0.238 -0.16,0.394 -0.399,0.394 h -20.855 c -0.238,0 -0.399,-0.156 -0.399,-0.394 V 28.207 c 0,-0.238 0.161,-0.398 0.399,-0.398 h 20.5 c 0.238,0 0.394,0.16 0.394,0.398 v 3.652 c 0,0.239 -0.156,0.399 -0.394,0.399 h -16.172 v 7.23 h 13.152 c 0.239,0 0.395,0.16 0.395,0.399 V 43.5 c 0,0.238 -0.156,0.398 -0.395,0.398 h -13.152 v 7.27 h 16.527 c 0.239,0 0.399,0.16 0.399,0.398"
         style="fill:#7a8993;fill-opacity:1;fill-rule:nonzero;stroke:none"
         id="path885" />
      <path
         d="m 175.949,47.574 c 0,-2.582 -1.711,-3.754 -5.465,-3.754 h -9.355 v 7.469 h 9.355 c 3.817,0 5.465,-1.113 5.465,-3.715 m -6.793,-15.433 h -8.027 v 7.468 h 8.027 c 3.594,0 5.242,-1.171 5.242,-3.734 0,-2.563 -1.648,-3.734 -5.242,-3.734 m 11.641,15.851 c 0,4.863 -3.738,7.625 -10.332,7.625 h -13.664 c -0.239,0 -0.399,-0.156 -0.399,-0.394 V 28.207 c 0,-0.238 0.16,-0.398 0.399,-0.398 h 12.453 c 6.418,0 9.91,2.543 9.91,7.191 0,3.059 -1.547,5.066 -4.687,5.996 4.41,0.938 6.32,3.578 6.32,6.996"
         style="fill:#7a8993;fill-opacity:1;fill-rule:nonzero;stroke:none"
         id="path887" />
      <path
         d="m 204.016,51.605 c 5.699,0 9.293,-3.914 9.293,-9.89 0,-5.981 -3.594,-9.895 -9.293,-9.895 h -0.598 c -5.699,0 -9.297,3.914 -9.297,9.895 0,5.976 3.598,9.89 9.297,9.89 z m -14.899,-9.89 c 0,-8.383 5.563,-14.422 14.301,-14.422 h 0.598 c 8.738,0 14.3,6.039 14.3,14.422 0,8.383 -5.562,14.418 -14.3,14.418 h -0.598 c -8.738,0 -14.301,-6.035 -14.301,-14.418"
         style="fill:#7a8993;fill-opacity:1;fill-rule:nonzero;stroke:none"
         id="path889" />
      <path
         d="m 241.277,51.605 c 5.7,0 9.297,-3.914 9.297,-9.89 0,-5.981 -3.597,-9.895 -9.297,-9.895 h -0.597 c -5.7,0 -9.293,3.914 -9.293,9.895 0,5.976 3.593,9.89 9.293,9.89 z m -14.898,-9.89 c 0,-8.383 5.562,-14.422 14.301,-14.422 h 0.597 c 8.739,0 14.301,6.039 14.301,14.422 0,8.383 -5.562,14.418 -14.301,14.418 h -0.597 c -8.739,0 -14.301,-6.035 -14.301,-14.418"
         style="fill:#7a8993;fill-opacity:1;fill-rule:nonzero;stroke:none"
         id="path891" />
      <path
         d="m 289.844,55.617 h -5.125 c -0.34,0 -0.477,-0.078 -0.696,-0.336 -3.597,-4.23 -7.847,-8.441 -11.461,-11.543 h -2.304 v 11.485 c 0,0.238 -0.16,0.394 -0.399,0.394 h -3.933 c -0.238,0 -0.395,-0.156 -0.395,-0.394 V 28.207 c 0,-0.238 0.157,-0.398 0.395,-0.398 h 3.933 c 0.239,0 0.399,0.16 0.399,0.398 v 10.965 h 2.344 c 3.871,-3.496 7.449,-7.27 10.367,-11.067 0.199,-0.257 0.359,-0.296 0.597,-0.296 h 4.848 c 0.238,0 0.356,0.121 0.356,0.277 0,0.082 -0.04,0.18 -0.137,0.301 -4.274,5.261 -8.504,9.574 -12.418,12.91 4.926,4.172 9.594,8.82 13.847,13.824 0.219,0.258 0.098,0.496 -0.218,0.496"
         style="fill:#7a8993;fill-opacity:1;fill-rule:nonzero;stroke:none"
         id="path893" />
    </g>
  </g>
</svg>
