<?xml version="1.0" encoding="UTF-8" standalone="no"?>
<svg
   xmlns:dc="http://purl.org/dc/elements/1.1/"
   xmlns:cc="http://creativecommons.org/ns#"
   xmlns:rdf="http://www.w3.org/1999/02/22-rdf-syntax-ns#"
   xmlns:svg="http://www.w3.org/2000/svg"
   xmlns="http://www.w3.org/2000/svg"
   version="1.1"
   id="svg2"
   xml:space="preserve"
   width="323mm"
   height="118mm"
   viewBox="0 0 1220.7859 445.98419"><metadata
     id="metadata8"><rdf:RDF><cc:Work
         rdf:about=""><dc:format>image/svg+xml</dc:format><dc:type
           rdf:resource="http://purl.org/dc/dcmitype/StillImage" /><dc:title></dc:title></cc:Work></rdf:RDF></metadata><defs
     id="defs6"><clipPath
       clipPathUnits="userSpaceOnUse"
       id="clipPath18"><path
         d="M 0,1242 H 2208 V 0 H 0 Z"
         id="path16" /></clipPath></defs><g
     id="g10"
     transform="matrix(1.3333333,0,0,-1.3333333,0,1656)"><g
       id="g12"
       transform="translate(-632.63705,410.49868)"><g
         id="g14"
         clip-path="url(#clipPath18)"><g
           id="g20"
           transform="translate(1176.2529,613.0312)"><path
             d="M 0,0 C 21.268,-25.63 60.803,-41.99 103.614,-45.261 L 88.889,-70.892 c -39.535,4.636 -85.073,23.175 -110.43,55.897 -23.45,-32.722 -68.168,-52.626 -124.065,-56.716 l 8.725,27.539 C -98.98,-43.627 -59.715,-23.994 -42.81,0 h -99.252 v 23.723 h 105.796 v 22.36 h -99.797 v 23.449 h 99.797 V 87.8 h -99.797 v 23.45 h 99.797 v 19.086 h -105.796 v 23.723 h 42.81 l -2.454,20.177 h 29.721 c 1.091,-6.543 1.908,-13.36 3,-20.177 h 95.16 c 1.364,6.817 2.181,13.634 2.728,20.177 h 30.265 c -0.548,-6.543 -1.361,-13.36 -2.455,-20.177 H 99.524 V 130.336 H -7.093 V 111.25 H 92.709 V 87.8 H -7.093 V 69.532 H 92.709 V 46.083 H -7.093 V 23.723 H 99.524 V 0 Z"
             style="fill:#000000;fill-opacity:1;fill-rule:nonzero;stroke:none"
             id="path22" /></g><g
           id="g24"
           transform="translate(1353.4639,701.3765)"><path
             d="m 0,0 v 22.905 h 95.16 v 20.722 h 28.083 V 22.905 h 26.722 V 0 h -26.722 v -64.622 c 0,-22.086 -2.725,-38.446 -8.723,-55.351 H 83.981 c 9.271,19.632 11.179,33.538 11.179,54.534 V 0 H 69.53 C 65.714,-42.262 49.35,-94.615 32.173,-119.973 H 1.091 C 17.725,-96.525 36.81,-50.716 41.443,0 Z M 162.508,56.676 H -14.451 v -189.799 h 176.959 z m 28.63,9.27 v -223.337 h -218.95 c -9.819,0 -15.269,5.454 -15.269,14.997 V 80.943 h 218.68 c 9.814,0 15.539,-5.452 15.539,-14.997"
             style="fill:#000000;fill-opacity:1;fill-rule:nonzero;stroke:none"
             id="path26" /></g><g
           id="g28"
           transform="translate(729.9419,829)"><path
             d="m 0,0 h 139.383 c 33.038,0 45.019,-3.44 57.097,-9.899 12.079,-6.46 21.558,-15.939 28.018,-28.018 6.459,-12.078 9.899,-24.059 9.899,-57.098 v -139.382 c 0,-33.039 -3.44,-45.019 -9.899,-57.098 -6.46,-12.078 -15.939,-21.558 -28.018,-28.017 -12.078,-6.46 -24.059,-9.9 -57.097,-9.9 H 0 c -33.039,0 -45.019,3.44 -57.098,9.9 -12.078,6.459 -21.557,15.939 -28.017,28.017 -6.459,12.079 -9.899,24.059 -9.899,57.098 v 139.382 c 0,33.039 3.44,45.02 9.899,57.098 6.46,12.079 15.939,21.558 28.017,28.018 C -45.019,-3.44 -33.039,0 0,0"
             style="fill:#ffd100;fill-opacity:1;fill-rule:evenodd;stroke:none"
             id="path30" /></g><g
           id="g32"
           transform="translate(743.0898,638.6733)"><path
             d="m 0,0 c 10.648,-12.833 30.444,-21.025 51.879,-22.663 l -7.373,-12.833 c -19.795,2.321 -42.595,11.604 -55.292,27.988 -11.741,-16.384 -34.132,-26.35 -62.119,-28.398 l 4.368,13.788 c 18.977,0.274 38.638,10.104 47.102,22.118 h -49.696 v 11.878 h 52.972 v 11.195 h -49.968 v 11.741 h 49.968 v 9.147 h -49.968 v 11.742 h 49.968 v 9.556 h -52.972 v 11.878 h 21.435 l -1.228,10.103 h 14.881 c 0.546,-3.276 0.955,-6.69 1.501,-10.103 h 47.647 c 0.684,3.413 1.093,6.827 1.367,10.103 H 29.625 C 29.351,83.964 28.944,80.55 28.396,77.137 H 49.832 V 65.259 H -3.551 v -9.556 h 49.97 V 43.961 h -49.97 v -9.147 h 49.97 V 23.073 H -3.551 V 11.878 H 49.832 V 0 Z"
             style="fill:#000000;fill-opacity:1;fill-rule:nonzero;stroke:none"
             id="path34" /></g><g
           id="g36"
           transform="translate(831.8193,682.9077)"><path
             d="M 0,0 V 11.469 H 47.647 V 21.844 H 61.708 V 11.469 H 75.087 V 0 H 61.708 v -32.356 c 0,-11.059 -1.365,-19.25 -4.368,-27.715 H 42.05 c 4.641,9.83 5.597,16.793 5.597,27.305 V 0 H 34.813 C 32.903,-21.161 24.709,-47.374 16.109,-60.071 H 0.546 C 8.875,-48.33 18.431,-25.394 20.751,0 Z M 81.368,28.377 H -7.236 v -95.032 h 88.604 z m 14.335,4.642 V -78.806 H -13.926 c -4.916,0 -7.645,2.731 -7.645,7.509 V 40.528 H 87.923 c 4.914,0 7.78,-2.73 7.78,-7.509"
             style="fill:#000000;fill-opacity:1;fill-rule:nonzero;stroke:none"
             id="path38" /></g></g></g></g></svg>
